<svg xmlns="http://www.w3.org/2000/svg" viewBox="0 0 256 256" width="256" height="256" role="img" aria-labelledby="qinTitle qinDesc">
<title id="qinTitle">Quiz student ID number</title>
<desc id="qinDesc">A quiz answer sheet overlaid with a repeating diagonal ID watermark.</desc>
<defs>
<clipPath id="qinSheet"><rect x="64" y="40" width="128" height="176" rx="14"/></clipPath>
</defs>
<rect width="256" height="256" rx="56" fill="#1F2937"/>
<rect x="64" y="40" width="128" height="176" rx="14" fill="#FFFFFF"/>
<rect x="82" y="62" width="56" height="10" rx="5" fill="#F98012"/>
<g fill="#CBD5E1">
<rect x="106" y="99" width="68" height="9" rx="4.5"/>
<rect x="106" y="127" width="68" height="9" rx="4.5"/>
<rect x="106" y="155" width="52" height="9" rx="4.5"/>
<rect x="106" y="183" width="60" height="9" rx="4.5"/>
</g>
<g fill="none" stroke="#CBD5E1" stroke-width="4">
<circle cx="90" cy="103.5" r="8"/>
<circle cx="90" cy="159.5" r="8"/>
<circle cx="90" cy="187.5" r="8"/>
</g>
<circle cx="90" cy="131.5" r="8" fill="#F98012"/>
<g clip-path="url(#qinSheet)">
<g transform="rotate(-30 128 128)" fill="#64748B" opacity="0.34" font-family="Helvetica, Arial, sans-serif" font-size="21" font-weight="700" letter-spacing="1.5" text-anchor="middle">
<text x="66" y="46">ID</text><text x="122" y="46">ID</text><text x="178" y="46">ID</text>
<text x="38" y="92">ID</text><text x="94" y="92">ID</text><text x="150" y="92">ID</text><text x="206" y="92">ID</text>
<text x="66" y="138">ID</text><text x="122" y="138">ID</text><text x="178" y="138">ID</text>
<text x="38" y="184">ID</text><text x="94" y="184">ID</text><text x="150" y="184">ID</text><text x="206" y="184">ID</text>
<text x="66" y="230">ID</text><text x="122" y="230">ID</text><text x="178" y="230">ID</text>
</g>
</g>
</svg>
